<svg width="512" height="512" viewBox="0 0 512 512" style="color:#ffd970" xmlns="http://www.w3.org/2000/svg" class="h-full w-full"><rect width="512" height="512" x="0" y="0" rx="30" fill="transparent" stroke="transparent" stroke-width="0" stroke-opacity="100%" paint-order="stroke"></rect><svg width="512px" height="512px" viewBox="0 0 24 24" fill="#ffd970" x="0" y="0" role="img" style="display:inline-block;vertical-align:middle" xmlns="http://www.w3.org/2000/svg"><g fill="#ffd970"><g fill="none" stroke="currentColor" stroke-linecap="round" stroke-linejoin="round" stroke-width="1.5"><path d="m17.674 11.408l-1.905 5.715a.6.6 0 0 1-.398.386L3.693 20.98a.6.6 0 0 1-.74-.765L6.745 8.841a.6.6 0 0 1 .34-.365l5.387-2.218a.6.6 0 0 1 .653.13l4.404 4.405a.6.6 0 0 1 .145.615ZM3.296 20.602l6.364-6.364"/><path d="m17.792 11.056l2.828-2.829a2 2 0 0 0 0-2.828L18.5 3.277a2 2 0 0 0-2.829 0l-2.828 2.829m-1.062 6.01a1.5 1.5 0 1 0-2.121 2.122a1.5 1.5 0 0 0 2.121-2.122Z"/></g></g></svg></svg>